<svg width="12" height="12" viewBox="0 0 12 12" fill="none" xmlns="http://www.w3.org/2000/svg">
<g clip-path="url(#clip0_201:608)">
<path d="M9 4H9.5C10.0304 4 10.5391 4.21071 10.9142 4.58579C11.2893 4.96086 11.5 5.46957 11.5 6C11.5 6.53043 11.2893 7.03914 10.9142 7.41421C10.5391 7.78929 10.0304 8 9.5 8H9" stroke="#6E6961" stroke-width="1.5" stroke-linecap="round" stroke-linejoin="round"/>
<path d="M1 4H9V8.5C9 9.03043 8.78929 9.53914 8.41421 9.91421C8.03914 10.2893 7.53043 10.5 7 10.5H3C2.46957 10.5 1.96086 10.2893 1.58579 9.91421C1.21071 9.53914 1 9.03043 1 8.5V4Z" stroke="#6E6961" stroke-width="1.5" stroke-linecap="round" stroke-linejoin="round"/>
<path d="M3 0.5V2" stroke="#6E6961" stroke-width="1.5" stroke-linecap="round" stroke-linejoin="round"/>
<path d="M5 0.5V2" stroke="#6E6961" stroke-width="1.5" stroke-linecap="round" stroke-linejoin="round"/>
<path d="M7 0.5V2" stroke="#6E6961" stroke-width="1.5" stroke-linecap="round" stroke-linejoin="round"/>
</g>
<defs>
<clipPath id="clip0_201:608">
<rect width="12" height="12" fill="white"/>
</clipPath>
</defs>
</svg>
