<svg width="36" height="36" viewBox="0 0 36 36" fill="none" xmlns="http://www.w3.org/2000/svg">
<path d="M7.5 8.25C7.5 6.85761 8.05312 5.52226 9.03769 4.53769C10.0223 3.55312 11.3576 3 12.75 3H18V13.5H12.75C11.3576 13.5 10.0223 12.9469 9.03769 11.9623C8.05312 10.9777 7.5 9.64239 7.5 8.25Z" stroke="#332B1E" stroke-width="3" stroke-linecap="round" stroke-linejoin="round"/>
<path d="M18 3H23.25C23.9394 3 24.6221 3.1358 25.2591 3.39963C25.896 3.66347 26.4748 4.05018 26.9623 4.53769C27.4498 5.0252 27.8365 5.60395 28.1004 6.24091C28.3642 6.87787 28.5 7.56056 28.5 8.25C28.5 8.93944 28.3642 9.62213 28.1004 10.2591C27.8365 10.896 27.4498 11.4748 26.9623 11.9623C26.4748 12.4498 25.896 12.8365 25.2591 13.1004C24.6221 13.3642 23.9394 13.5 23.25 13.5H18V3Z" stroke="#332B1E" stroke-width="3" stroke-linecap="round" stroke-linejoin="round"/>
<path d="M18 18.75C18 18.0606 18.1358 17.3779 18.3996 16.7409C18.6635 16.104 19.0502 15.5252 19.5377 15.0377C20.0252 14.5502 20.604 14.1635 21.2409 13.8996C21.8779 13.6358 22.5606 13.5 23.25 13.5C23.9394 13.5 24.6221 13.6358 25.2591 13.8996C25.896 14.1635 26.4748 14.5502 26.9623 15.0377C27.4498 15.5252 27.8365 16.104 28.1004 16.7409C28.3642 17.3779 28.5 18.0606 28.5 18.75C28.5 19.4394 28.3642 20.1221 28.1004 20.7591C27.8365 21.396 27.4498 21.9748 26.9623 22.4623C26.4748 22.9498 25.896 23.3365 25.2591 23.6004C24.6221 23.8642 23.9394 24 23.25 24C22.5606 24 21.8779 23.8642 21.2409 23.6004C20.604 23.3365 20.0252 22.9498 19.5377 22.4623C19.0502 21.9748 18.6635 21.396 18.3996 20.7591C18.1358 20.1221 18 19.4394 18 18.75V18.75Z" stroke="#332B1E" stroke-width="3" stroke-linecap="round" stroke-linejoin="round"/>
<path d="M7.5 29.25C7.5 27.8576 8.05312 26.5223 9.03769 25.5377C10.0223 24.5531 11.3576 24 12.75 24H18V29.25C18 30.6424 17.4469 31.9777 16.4623 32.9623C15.4777 33.9469 14.1424 34.5 12.75 34.5C11.3576 34.5 10.0223 33.9469 9.03769 32.9623C8.05312 31.9777 7.5 30.6424 7.5 29.25Z" stroke="#332B1E" stroke-width="3" stroke-linecap="round" stroke-linejoin="round"/>
<path d="M7.5 18.75C7.5 17.3576 8.05312 16.0223 9.03769 15.0377C10.0223 14.0531 11.3576 13.5 12.75 13.5H18V24H12.75C11.3576 24 10.0223 23.4469 9.03769 22.4623C8.05312 21.4777 7.5 20.1424 7.5 18.75Z" stroke="#332B1E" stroke-width="3" stroke-linecap="round" stroke-linejoin="round"/>
</svg>
