<svg width="164" height="116" viewBox="0 0 164 116" fill="none" xmlns="http://www.w3.org/2000/svg">
<circle cx="4" cy="4" r="4" fill="#BDBDBD"/>
<circle cx="100" cy="4" r="4" fill="#BDBDBD"/>
<circle cx="52" cy="4" r="4" fill="#BDBDBD"/>
<circle cx="28" cy="4" r="4" fill="#BDBDBD"/>
<circle cx="124" cy="4" r="4" fill="#BDBDBD"/>
<circle cx="148" cy="4" r="4" fill="#BDBDBD"/>
<circle cx="76" cy="4" r="4" fill="#BDBDBD"/>
<circle cx="4" cy="4" r="4" fill="#BDBDBD"/>
<circle cx="100" cy="4" r="4" fill="#BDBDBD"/>
<circle cx="52" cy="4" r="4" fill="#BDBDBD"/>
<circle cx="28" cy="4" r="4" fill="#BDBDBD"/>
<circle cx="124" cy="4" r="4" fill="#BDBDBD"/>
<circle cx="148" cy="4" r="4" fill="#BDBDBD"/>
<circle cx="76" cy="4" r="4" fill="#BDBDBD"/>
<circle cx="4" cy="28" r="4" fill="#BDBDBD"/>
<circle cx="100" cy="28" r="4" fill="#BDBDBD"/>
<circle cx="52" cy="28" r="4" fill="#BDBDBD"/>
<circle cx="28" cy="28" r="4" fill="#BDBDBD"/>
<circle cx="124" cy="28" r="4" fill="#BDBDBD"/>
<circle cx="148" cy="28" r="4" fill="#BDBDBD"/>
<circle cx="76" cy="28" r="4" fill="#BDBDBD"/>
<circle cx="4" cy="52" r="4" fill="#BDBDBD"/>
<circle cx="4" cy="76" r="4" fill="#BDBDBD"/>
<circle cx="4" cy="100" r="4" fill="#BDBDBD"/>
<circle cx="100" cy="52" r="4" fill="#BDBDBD"/>
<circle cx="100" cy="76" r="4" fill="#BDBDBD"/>
<circle cx="100" cy="100" r="4" fill="#BDBDBD"/>
<circle cx="52" cy="52" r="4" fill="#BDBDBD"/>
<circle cx="52" cy="76" r="4" fill="#BDBDBD"/>
<circle cx="52" cy="100" r="4" fill="#BDBDBD"/>
<circle cx="28" cy="52" r="4" fill="#BDBDBD"/>
<circle cx="28" cy="76" r="4" fill="#BDBDBD"/>
<circle cx="28" cy="100" r="4" fill="#BDBDBD"/>
<circle cx="124" cy="52" r="4" fill="#BDBDBD"/>
<circle cx="148" cy="52" r="4" fill="#BDBDBD"/>
<circle cx="124" cy="76" r="4" fill="#BDBDBD"/>
<circle cx="148" cy="76" r="4" fill="#BDBDBD"/>
<circle cx="124" cy="100" r="4" fill="#BDBDBD"/>
<circle cx="148" cy="100" r="4" fill="#BDBDBD"/>
<circle cx="76" cy="52" r="4" fill="#BDBDBD"/>
<circle cx="76" cy="76" r="4" fill="#BDBDBD"/>
<circle cx="76" cy="100" r="4" fill="#BDBDBD"/>
<circle cx="4" cy="16" r="4" fill="#BDBDBD"/>
<circle cx="100" cy="16" r="4" fill="#BDBDBD"/>
<circle cx="52" cy="16" r="4" fill="#BDBDBD"/>
<circle cx="28" cy="16" r="4" fill="#BDBDBD"/>
<circle cx="124" cy="16" r="4" fill="#BDBDBD"/>
<circle cx="148" cy="16" r="4" fill="#BDBDBD"/>
<circle cx="76" cy="16" r="4" fill="#BDBDBD"/>
<circle cx="4" cy="16" r="4" fill="#BDBDBD"/>
<circle cx="100" cy="16" r="4" fill="#BDBDBD"/>
<circle cx="52" cy="16" r="4" fill="#BDBDBD"/>
<circle cx="28" cy="16" r="4" fill="#BDBDBD"/>
<circle cx="124" cy="16" r="4" fill="#BDBDBD"/>
<circle cx="148" cy="16" r="4" fill="#BDBDBD"/>
<circle cx="76" cy="16" r="4" fill="#BDBDBD"/>
<circle cx="4" cy="40" r="4" fill="#BDBDBD"/>
<circle cx="100" cy="40" r="4" fill="#BDBDBD"/>
<circle cx="52" cy="40" r="4" fill="#BDBDBD"/>
<circle cx="28" cy="40" r="4" fill="#BDBDBD"/>
<circle cx="124" cy="40" r="4" fill="#BDBDBD"/>
<circle cx="148" cy="40" r="4" fill="#BDBDBD"/>
<circle cx="76" cy="40" r="4" fill="#BDBDBD"/>
<circle cx="4" cy="64" r="4" fill="#BDBDBD"/>
<circle cx="4" cy="88" r="4" fill="#BDBDBD"/>
<circle cx="4" cy="112" r="4" fill="#BDBDBD"/>
<circle cx="100" cy="64" r="4" fill="#BDBDBD"/>
<circle cx="100" cy="88" r="4" fill="#BDBDBD"/>
<circle cx="100" cy="112" r="4" fill="#BDBDBD"/>
<circle cx="52" cy="64" r="4" fill="#BDBDBD"/>
<circle cx="52" cy="88" r="4" fill="#BDBDBD"/>
<circle cx="52" cy="112" r="4" fill="#BDBDBD"/>
<circle cx="28" cy="64" r="4" fill="#BDBDBD"/>
<circle cx="28" cy="88" r="4" fill="#BDBDBD"/>
<circle cx="28" cy="112" r="4" fill="#BDBDBD"/>
<circle cx="124" cy="64" r="4" fill="#BDBDBD"/>
<circle cx="148" cy="64" r="4" fill="#BDBDBD"/>
<circle cx="124" cy="88" r="4" fill="#BDBDBD"/>
<circle cx="148" cy="88" r="4" fill="#BDBDBD"/>
<circle cx="124" cy="112" r="4" fill="#BDBDBD"/>
<circle cx="148" cy="112" r="4" fill="#BDBDBD"/>
<circle cx="76" cy="64" r="4" fill="#BDBDBD"/>
<circle cx="76" cy="88" r="4" fill="#BDBDBD"/>
<circle cx="76" cy="112" r="4" fill="#BDBDBD"/>
<circle cx="16" cy="4" r="4" fill="#BDBDBD"/>
<circle cx="112" cy="4" r="4" fill="#BDBDBD"/>
<circle cx="64" cy="4" r="4" fill="#BDBDBD"/>
<circle cx="40" cy="4" r="4" fill="#BDBDBD"/>
<circle cx="136" cy="4" r="4" fill="#BDBDBD"/>
<circle cx="160" cy="4" r="4" fill="#BDBDBD"/>
<circle cx="88" cy="4" r="4" fill="#BDBDBD"/>
<circle cx="16" cy="4" r="4" fill="#BDBDBD"/>
<circle cx="112" cy="4" r="4" fill="#BDBDBD"/>
<circle cx="64" cy="4" r="4" fill="#BDBDBD"/>
<circle cx="40" cy="4" r="4" fill="#BDBDBD"/>
<circle cx="136" cy="4" r="4" fill="#BDBDBD"/>
<circle cx="160" cy="4" r="4" fill="#BDBDBD"/>
<circle cx="88" cy="4" r="4" fill="#BDBDBD"/>
<circle cx="16" cy="28" r="4" fill="#BDBDBD"/>
<circle cx="112" cy="28" r="4" fill="#BDBDBD"/>
<circle cx="64" cy="28" r="4" fill="#BDBDBD"/>
<circle cx="40" cy="28" r="4" fill="#BDBDBD"/>
<circle cx="136" cy="28" r="4" fill="#BDBDBD"/>
<circle cx="160" cy="28" r="4" fill="#BDBDBD"/>
<circle cx="88" cy="28" r="4" fill="#BDBDBD"/>
<circle cx="16" cy="52" r="4" fill="#BDBDBD"/>
<circle cx="16" cy="76" r="4" fill="#BDBDBD"/>
<circle cx="16" cy="100" r="4" fill="#BDBDBD"/>
<circle cx="112" cy="52" r="4" fill="#BDBDBD"/>
<circle cx="112" cy="76" r="4" fill="#BDBDBD"/>
<circle cx="112" cy="100" r="4" fill="#BDBDBD"/>
<circle cx="64" cy="52" r="4" fill="#BDBDBD"/>
<circle cx="64" cy="76" r="4" fill="#BDBDBD"/>
<circle cx="64" cy="100" r="4" fill="#BDBDBD"/>
<circle cx="40" cy="52" r="4" fill="#BDBDBD"/>
<circle cx="40" cy="76" r="4" fill="#BDBDBD"/>
<circle cx="40" cy="100" r="4" fill="#BDBDBD"/>
<circle cx="136" cy="52" r="4" fill="#BDBDBD"/>
<circle cx="160" cy="52" r="4" fill="#BDBDBD"/>
<circle cx="136" cy="76" r="4" fill="#BDBDBD"/>
<circle cx="160" cy="76" r="4" fill="#BDBDBD"/>
<circle cx="136" cy="100" r="4" fill="#BDBDBD"/>
<circle cx="160" cy="100" r="4" fill="#BDBDBD"/>
<circle cx="88" cy="52" r="4" fill="#BDBDBD"/>
<circle cx="88" cy="76" r="4" fill="#BDBDBD"/>
<circle cx="88" cy="100" r="4" fill="#BDBDBD"/>
<circle cx="16" cy="16" r="4" fill="#BDBDBD"/>
<circle cx="112" cy="16" r="4" fill="#BDBDBD"/>
<circle cx="64" cy="16" r="4" fill="#BDBDBD"/>
<circle cx="40" cy="16" r="4" fill="#BDBDBD"/>
<circle cx="136" cy="16" r="4" fill="#BDBDBD"/>
<circle cx="160" cy="16" r="4" fill="#BDBDBD"/>
<circle cx="88" cy="16" r="4" fill="#BDBDBD"/>
<circle cx="16" cy="16" r="4" fill="#BDBDBD"/>
<circle cx="112" cy="16" r="4" fill="#BDBDBD"/>
<circle cx="64" cy="16" r="4" fill="#BDBDBD"/>
<circle cx="40" cy="16" r="4" fill="#BDBDBD"/>
<circle cx="136" cy="16" r="4" fill="#BDBDBD"/>
<circle cx="160" cy="16" r="4" fill="#BDBDBD"/>
<circle cx="88" cy="16" r="4" fill="#BDBDBD"/>
<circle cx="16" cy="40" r="4" fill="#BDBDBD"/>
<circle cx="112" cy="40" r="4" fill="#BDBDBD"/>
<circle cx="64" cy="40" r="4" fill="#BDBDBD"/>
<circle cx="40" cy="40" r="4" fill="#BDBDBD"/>
<circle cx="136" cy="40" r="4" fill="#BDBDBD"/>
<circle cx="160" cy="40" r="4" fill="#BDBDBD"/>
<circle cx="88" cy="40" r="4" fill="#BDBDBD"/>
<circle cx="16" cy="64" r="4" fill="#BDBDBD"/>
<circle cx="16" cy="88" r="4" fill="#BDBDBD"/>
<circle cx="16" cy="112" r="4" fill="#BDBDBD"/>
<circle cx="112" cy="64" r="4" fill="#BDBDBD"/>
<circle cx="112" cy="88" r="4" fill="#BDBDBD"/>
<circle cx="112" cy="112" r="4" fill="#BDBDBD"/>
<circle cx="64" cy="64" r="4" fill="#BDBDBD"/>
<circle cx="64" cy="88" r="4" fill="#BDBDBD"/>
<circle cx="64" cy="112" r="4" fill="#BDBDBD"/>
<circle cx="40" cy="64" r="4" fill="#BDBDBD"/>
<circle cx="40" cy="88" r="4" fill="#BDBDBD"/>
<circle cx="40" cy="112" r="4" fill="#BDBDBD"/>
<circle cx="136" cy="64" r="4" fill="#BDBDBD"/>
<circle cx="160" cy="64" r="4" fill="#BDBDBD"/>
<circle cx="136" cy="88" r="4" fill="#BDBDBD"/>
<circle cx="160" cy="88" r="4" fill="#BDBDBD"/>
<circle cx="136" cy="112" r="4" fill="#BDBDBD"/>
<circle cx="160" cy="112" r="4" fill="#BDBDBD"/>
<circle cx="88" cy="64" r="4" fill="#BDBDBD"/>
<circle cx="88" cy="88" r="4" fill="#BDBDBD"/>
<circle cx="88" cy="112" r="4" fill="#BDBDBD"/>
</svg>
