<svg width="36" height="36" viewBox="0 0 36 36" fill="none" xmlns="http://www.w3.org/2000/svg">
<path d="M31.2601 6.91481C30.4939 6.14831 29.5843 5.54028 28.5831 5.12543C27.5819 4.71059 26.5088 4.49707 25.4251 4.49707C24.3413 4.49707 23.2682 4.71059 22.267 5.12543C21.2658 5.54028 20.3562 6.14831 19.5901 6.91481L18.0001 8.50481L16.4101 6.91481C14.8625 5.36727 12.7636 4.49787 10.5751 4.49787C8.38651 4.49787 6.2876 5.36727 4.74006 6.91481C3.19252 8.46235 2.32312 10.5613 2.32312 12.7498C2.32312 14.9384 3.19252 17.0373 4.74006 18.5848L6.33006 20.1748L18.0001 31.8448L29.6701 20.1748L31.2601 18.5848C32.0266 17.8187 32.6346 16.909 33.0494 15.9078C33.4643 14.9067 33.6778 13.8335 33.6778 12.7498C33.6778 11.6661 33.4643 10.593 33.0494 9.59177C32.6346 8.59059 32.0266 7.68094 31.2601 6.91481V6.91481Z" stroke="white" stroke-width="3" stroke-linecap="round" stroke-linejoin="round"/>
</svg>
